<?xml version="1.0" encoding="UTF-8" standalone="no"?> <svg width="512" height="512" viewBox="0 0 512 512" fill="none" xmlns="http://www.w3.org/2000/svg">
<path d="M368 360L376 368L360 400H392L416 376V336L400 328L382.032 283.081L360 328L368 360Z" fill="#DA7E21"/>
<path d="M368 328L376 360L372 364L368 360L360 328L382.03 283.08L386.82 295.06L368 328Z" fill="#DA7E21"/>
<path d="M144 320V376L128 384L136 400H168L194.026 339.274L144 320Z" fill="#DA7E21"/>
<path d="M160 352C160 354.122 159.157 356.157 157.657 357.657C156.157 359.157 154.122 360 152 360H144V344H152C154.122 344 156.157 344.843 157.657 346.343C159.157 347.843 160 349.878 160 352Z" fill="#DA7E21"/>
<path d="M280 352L304 368L271.786 373.369C267.376 374.104 263.369 376.38 260.478 379.791C257.588 383.203 256.001 387.529 256 392V400H328L368 360L360 328L386.94 280.855C388.521 278.088 390.698 275.707 393.313 273.885C395.929 272.064 398.916 270.847 402.06 270.323C426.412 266.264 448.265 252.98 463.078 233.229L468.8 225.6C481.263 208.983 488 188.771 488 168V168L472.911 171.018C465.065 172.587 457.633 175.779 451.092 180.388C444.552 184.997 439.047 190.923 434.93 197.784V197.784C427.877 209.539 416.852 218.383 403.847 222.718V222.718C385.891 228.703 366.377 227.99 348.906 220.71L328 212C296.477 198.866 262.227 193.617 228.218 196.709L192 200L162.665 148.664C160.891 145.56 158.878 142.598 156.645 139.806C148.159 129.199 136.727 121.337 123.786 117.208C110.845 113.079 96.972 112.867 83.911 116.6L72 120L56 144L40 152V184L41.624 185.624C56.4294 200.43 73.6875 212.559 92.633 221.474V221.474C93.6398 221.948 94.491 222.699 95.0872 223.638C95.6834 224.578 96 225.668 96 226.781V228.209C95.9998 241.372 97.2998 254.502 99.881 267.409L104 288L64 320L48 336L24 344V368H56L144 320L280 352Z" fill="#DA7E21"/>
<path d="M77.6598 322.34C79.161 323.841 80.0043 325.877 80.0043 328C80.0043 330.123 79.161 332.159 77.6598 333.66C76.1587 335.161 74.1228 336.005 71.9998 336.005C69.8769 336.005 67.841 335.161 66.3398 333.66L58.3398 325.66L63.9998 320L70.2898 314.97L77.6598 322.34Z" fill="#DA7E21"/>
<path d="M101.66 317.66C100.157 319.158 98.122 320 95.9999 320C93.8779 320 91.8424 319.158 90.3399 317.66L79.9399 307.25L92.5099 297.19L101.66 306.34C103.158 307.842 104 309.878 104 312C104 314.122 103.158 316.157 101.66 317.66V317.66Z" fill="#DA7E21"/>
<path d="M284.38 336.21C284.38 337.953 284.099 339.685 283.55 341.34L278.93 352H249.34C222.152 352 195.337 345.67 171.02 333.51L144 320L159.38 304.62C161.924 302.075 165.171 300.351 168.704 299.671C172.237 298.99 175.893 299.383 179.2 300.8L202.12 310.62C216.557 316.81 232.102 320.002 247.81 320H268.17C270.299 320 272.407 320.418 274.374 321.233C276.341 322.047 278.128 323.241 279.633 324.747C281.139 326.252 282.333 328.039 283.147 330.006C283.962 331.973 284.381 334.081 284.38 336.21V336.21Z" fill="#DA7E21"/>
<path d="M228.22 196.71C229.48 196.59 230.74 196.49 232 196.4V211.38C231.996 224.716 227.406 237.646 219 248L218.22 246.86C211.563 237.184 207.999 225.715 208 213.97V198.55L228.22 196.71Z" fill="#DA7E21"/>
<path d="M264 196.52C272.058 197.159 280.072 198.271 288 199.85V211.38C287.996 224.717 283.406 237.646 275 248L274.22 246.86C267.563 237.184 263.999 225.715 264 213.97V196.52Z" fill="#DA7E21"/>
<path d="M344 218.66V222.68C343.993 236.013 339.404 248.939 331 259.29L330.22 258.15C323.563 248.474 319.999 237.005 320 225.26V208.86C322.69 209.85 325.35 210.9 328 212L344 218.66Z" fill="#DA7E21"/>
<path d="M96 128L104 80L126.536 117.56C127.494 119.156 128 120.983 128 122.845C128 124.406 127.644 125.946 126.96 127.349C126.275 128.752 125.28 129.98 124.05 130.94C122.82 131.901 121.387 132.568 119.86 132.892C118.333 133.216 116.752 133.188 115.238 132.809L96 128Z" fill="#BB6C1C"/>
<path d="M232 196.4V211.38C231.996 224.716 227.406 237.646 219 248L218.22 246.86C211.563 237.184 207.999 225.715 208 213.97V198.55L228.22 196.71C229.48 196.59 230.74 196.49 232 196.4Z" fill="#BB6C1C"/>
<path d="M288 199.85V211.38C287.996 224.717 283.406 237.646 275 248L274.22 246.86C267.563 237.184 263.999 225.715 264 213.97V196.52C272.058 197.159 280.072 198.271 288 199.85V199.85Z" fill="#BB6C1C"/>
<path d="M344 218.66V222.68C343.993 236.013 339.404 248.939 331 259.29L330.22 258.15C323.563 248.474 319.999 237.005 320 225.26V208.86C322.69 209.85 325.35 210.9 328 212L344 218.66Z" fill="#BB6C1C"/>
<path d="M284.38 336.21C284.38 337.953 284.099 339.685 283.55 341.34L278.93 352H249.34C222.152 352 195.337 345.67 171.02 333.51L144 320L159.38 304.62C161.924 302.075 165.171 300.351 168.704 299.671C172.237 298.99 175.893 299.383 179.2 300.8L202.12 310.62C216.557 316.81 232.102 320.002 247.81 320H268.17C270.299 320 272.407 320.418 274.374 321.233C276.341 322.047 278.128 323.241 279.633 324.747C281.139 326.252 282.333 328.039 283.147 330.006C283.962 331.973 284.381 334.081 284.38 336.21V336.21Z" fill="#E6E5E0"/>
<path d="M493.072 161.813C492.157 161.063 491.086 160.525 489.938 160.238C488.789 159.951 487.592 159.923 486.431 160.155L471.341 163.173C462.404 164.969 453.94 168.609 446.489 173.861C439.039 179.112 432.765 185.86 428.069 193.673C421.997 203.789 412.508 211.4 401.316 215.133C385.193 220.509 367.67 219.869 351.982 213.333L331.075 204.621C298.343 191.016 262.796 185.566 227.491 188.74L196.391 191.567L169.61 144.694C160.998 129.62 147.538 117.905 131.421 111.454C131.373 111.434 131.321 111.422 131.276 111.404C130.038 108.355 128.567 105.406 126.876 102.583L110.856 75.883C110.014 74.4792 108.762 73.3674 107.268 72.6978C105.775 72.0281 104.112 71.8327 102.503 72.1379C100.895 72.4431 99.4195 73.2343 98.2751 74.4047C97.1308 75.5751 96.373 77.0683 96.104 78.6829L91.422 106.8C88.1442 107.29 84.9015 107.992 81.714 108.9L69.803 112.3C67.9777 112.821 66.3972 113.975 65.344 115.554L50.522 137.795L36.422 144.845C35.0933 145.509 33.9758 146.531 33.1948 147.794C32.4138 149.058 32.0001 150.514 32 152V184C32 185.051 32.2069 186.091 32.6089 187.061C33.0109 188.032 33.6001 188.914 34.343 189.657L35.967 191.281C51.0966 206.426 68.6919 218.887 88 228.131V228.209C88.003 241.897 89.3548 255.552 92.036 268.975L95.2 284.8L59 313.753L58.983 313.768C58.7586 313.948 58.5439 314.14 58.34 314.343L43.679 329.008L21.47 336.408C19.8767 336.939 18.491 337.958 17.5092 339.321C16.5275 340.683 15.9995 342.32 16 344V368C16 370.122 16.8429 372.157 18.3431 373.657C19.8434 375.157 21.8783 376 24 376H56C57.3386 376 58.6559 375.664 59.831 375.023L136 333.476V371.056L124.422 376.845C122.524 377.794 121.082 379.458 120.411 381.471C119.74 383.483 119.896 385.68 120.845 387.578L128.845 403.578C129.509 404.907 130.531 406.024 131.794 406.805C133.058 407.586 134.514 408 136 408H168C169.566 408 171.097 407.541 172.404 406.679C173.712 405.817 174.737 404.59 175.354 403.151L197.115 352.375C202.484 353.975 207.924 355.343 213.427 356.444C225.252 358.806 237.281 359.997 249.34 360H277.578L282.729 363.435L270.471 365.478C264.185 366.508 258.472 369.743 254.354 374.603C250.236 379.463 247.984 385.63 248 392V400C248 402.122 248.843 404.157 250.343 405.657C251.843 407.157 253.878 408 256 408H328C329.051 408 330.091 407.793 331.062 407.391C332.032 406.989 332.914 406.4 333.657 405.657L362.797 376.517L352.845 396.422C352.235 397.642 351.947 398.997 352.008 400.359C352.07 401.722 352.478 403.046 353.195 404.206C353.912 405.366 354.913 406.323 356.104 406.987C357.295 407.651 358.636 408 360 408H392C393.051 408 394.091 407.793 395.062 407.391C396.032 406.989 396.914 406.4 397.657 405.657L421.657 381.657C422.4 380.914 422.989 380.032 423.391 379.061C423.793 378.091 424 377.051 424 376V336C424 334.514 423.586 333.058 422.805 331.794C422.024 330.531 420.907 329.509 419.578 328.845L406.298 322.205L392.392 287.439L393.886 284.824C394.875 283.085 396.241 281.588 397.883 280.445C399.525 279.301 401.402 278.539 403.376 278.214C429.773 273.86 453.461 259.46 469.476 238.029L475.2 230.4C488.66 212.376 495.953 190.495 496 168C496 166.816 495.737 165.647 495.231 164.577C494.725 163.508 493.987 162.563 493.072 161.813V161.813ZM335.964 223.985C335.787 230.737 334.249 237.383 331.443 243.527C329.161 237.707 327.993 231.51 328 225.258V220.667L335.964 223.985ZM272 205.4C274.675 205.731 277.34 206.132 280 206.57V211.387C279.994 218.584 278.44 225.695 275.443 232.238C273.161 226.416 271.993 220.218 272 213.965V205.4ZM216 205.854L224 205.127V211.387C223.994 218.584 222.44 225.695 219.443 232.238C217.161 226.416 215.993 220.218 216 213.965V205.854ZM108.319 102.754L113.159 110.821C115.883 115.36 117.837 120.318 118.941 125.495L105.105 122.036L108.319 102.754ZM181.676 347.788L162.725 392H140.944L138.733 387.578L147.578 383.155C148.907 382.491 150.024 381.469 150.805 380.206C151.586 378.942 152 377.486 152 376V360C154.122 360 156.157 359.157 157.657 357.657C159.157 356.157 160 354.122 160 352C160 349.878 159.157 347.843 157.657 346.343C156.157 344.843 154.122 344 152 344V332.944L167.446 340.667L167.458 340.673L181.676 347.788ZM216.564 340.76C201.999 337.846 187.888 333.003 174.603 326.36L157.503 317.811L165.037 310.277C166.447 308.858 168.251 307.897 170.215 307.519C172.179 307.141 174.211 307.363 176.047 308.156L198.961 317.977C214.392 324.61 231.014 328.02 247.81 328H268.173C269.474 328 270.757 328.309 271.915 328.902C273.074 329.495 274.074 330.355 274.835 331.411C275.596 332.467 276.095 333.688 276.291 334.974C276.488 336.261 276.375 337.575 275.964 338.81L274.234 344H249.34C238.335 343.997 227.356 342.91 216.564 340.754V340.76ZM392.572 330.977C393.3 332.796 394.67 334.285 396.422 335.161L408 340.944V372.686L388.687 392H372.944L383.155 371.578C383.906 370.076 384.165 368.376 383.896 366.718C383.627 365.061 382.843 363.53 381.655 362.343L375.221 355.909L368.539 329.178L382.253 305.178L392.572 330.977ZM462.4 220.8L456.68 228.429C443.127 246.562 423.083 258.747 400.746 262.429C396.429 263.141 392.325 264.808 388.735 267.308C385.145 269.809 382.158 273.08 379.994 276.883L353.055 324.028C352.031 325.819 351.739 327.936 352.24 329.937L359.14 357.543L324.687 392H264C263.994 389.421 264.906 386.923 266.574 384.956C268.241 382.988 270.555 381.678 273.1 381.26L305.313 375.891C306.895 375.627 308.362 374.894 309.522 373.786C310.682 372.678 311.483 371.247 311.819 369.679C312.156 368.111 312.014 366.477 311.41 364.991C310.807 363.505 309.771 362.234 308.436 361.344L289.52 348.733L291.142 343.869C292.355 340.229 292.686 336.354 292.107 332.561C291.529 328.769 290.057 325.168 287.814 322.056C285.571 318.943 282.62 316.409 279.206 314.66C275.791 312.912 272.009 312 268.173 312H247.81C233.182 312.017 218.705 309.045 205.267 303.268L182.353 293.447C177.58 291.383 172.296 290.806 167.189 291.789C162.083 292.773 157.391 295.271 153.726 298.96L139.157 313.529L53.96 360H32V349.766L50.53 343.589C51.7082 343.196 52.7787 342.535 53.657 341.657L64 331.314L66.343 333.657C67.0859 334.4 67.9678 334.989 68.9385 335.391C69.9091 335.793 70.9494 336 72 336C73.0506 336 74.0909 335.793 75.0615 335.391C76.0322 334.989 76.9141 334.4 77.657 333.657C78.3999 332.914 78.9892 332.032 79.3912 331.061C79.7933 330.091 80.0002 329.051 80.0002 328C80.0002 326.949 79.7933 325.909 79.3912 324.938C78.9892 323.968 78.3999 323.086 77.657 322.343L75.977 320.663L85.628 312.942L90.343 317.657C91.0859 318.4 91.9678 318.989 92.9385 319.391C93.9091 319.793 94.9494 320 96 320C97.0506 320 98.0909 319.793 99.0615 319.391C100.032 318.989 100.914 318.4 101.657 317.657C102.4 316.914 102.989 316.032 103.391 315.062C103.793 314.091 104 313.051 104 312C104 310.949 103.793 309.909 103.391 308.938C102.989 307.968 102.4 307.086 101.657 306.343L98.2 302.885L109 294.247C110.146 293.331 111.017 292.117 111.52 290.738C112.022 289.36 112.136 287.87 111.848 286.431L107.729 265.837C105.253 253.447 104.004 240.844 104 228.209V226.781C103.993 224.152 103.242 221.578 101.833 219.358C100.424 217.137 98.4153 215.362 96.039 214.236C78.2329 205.867 61.9865 194.519 48 180.682V156.944L59.578 151.155C60.823 150.533 61.884 149.596 62.656 148.438L77.025 126.884L86.109 124.289C86.9403 124.052 87.7763 123.834 88.617 123.633L88.108 126.685C87.7775 128.669 88.2065 130.705 89.3095 132.387C90.4125 134.069 92.1086 135.273 94.06 135.761L126.06 143.761C127.239 144.056 128.47 144.078 129.66 143.826C130.849 143.573 131.965 143.054 132.923 142.305C133.882 141.557 134.657 140.6 135.19 139.508C135.723 138.415 136 137.216 136 136V135.511C136 134.234 135.955 132.96 135.879 131.69C144.075 136.98 150.879 144.163 155.719 152.633L185.054 203.969C185.814 205.302 186.941 206.388 188.301 207.097C189.662 207.806 191.197 208.109 192.725 207.969L200 207.308V213.967C199.983 227.335 204.038 240.391 211.625 251.397L212.408 252.536C213.113 253.56 214.047 254.406 215.136 255.007C216.225 255.607 217.438 255.946 218.681 255.996C218.788 255.996 218.895 256.002 219.001 256.002C220.19 256.002 221.365 255.736 222.439 255.225C223.513 254.714 224.459 253.969 225.209 253.046C234.763 241.261 239.985 226.555 240 211.384V203.993C245.333 203.805 250.667 203.832 256 204.073V213.965C255.983 227.333 260.038 240.389 267.625 251.395L268.408 252.534C269.113 253.558 270.047 254.404 271.136 255.005C272.225 255.605 273.438 255.944 274.681 255.994C274.788 255.994 274.895 256 275.001 256C276.19 256 277.365 255.734 278.439 255.223C279.513 254.712 280.459 253.967 281.209 253.044C290.763 241.26 295.984 226.554 296 211.384V209.842C301.395 211.181 306.728 212.745 312 214.536V225.258C311.982 238.625 316.037 251.681 323.625 262.686L324.408 263.825C325.113 264.85 326.046 265.696 327.135 266.297C328.224 266.897 329.437 267.236 330.68 267.286C330.787 267.286 330.894 267.292 331.001 267.292C332.19 267.292 333.365 267.027 334.439 266.515C335.513 266.004 336.459 265.26 337.209 264.337C345.134 254.56 350.112 242.728 351.561 230.226C369.339 236.205 388.581 236.234 406.377 230.307C421.192 225.365 433.752 215.29 441.79 201.9C445.338 195.999 450.077 190.902 455.706 186.936C461.334 182.969 467.728 180.22 474.479 178.864L479.435 177.873C477.65 193.436 471.772 208.248 462.4 220.8V220.8Z" fill="black"/>
<path d="M80 162C85.5228 162 90 157.523 90 152C90 146.477 85.5228 142 80 142C74.4772 142 70 146.477 70 152C70 157.523 74.4772 162 80 162Z" fill="black"/>
</svg>
